<svg width="154" height="48" viewBox="0 0 154 48" fill="none" xmlns="http://www.w3.org/2000/svg">
<g clip-path="url(#clip0_32_890)">
<path d="M80.7354 12.0601C80.7354 13.7898 79.3476 15.1832 77.6247 15.1832C75.9018 15.1832 74.514 13.7898 74.514 12.0601C74.514 10.3303 75.854 8.93694 77.6247 8.93694C79.3954 8.98498 80.7354 10.3784 80.7354 12.0601ZM67.9096 18.3544C67.9096 18.6426 67.9096 19.1231 67.9096 19.1231C67.9096 19.1231 66.4261 17.2012 63.2675 17.2012C58.051 17.2012 53.9832 21.1892 53.9832 26.7147C53.9832 32.1922 58.0032 36.2282 63.2675 36.2282C66.4739 36.2282 67.9096 34.2583 67.9096 34.2583V35.0751C67.9096 35.4595 68.1968 35.7477 68.5797 35.7477H72.4561V17.6817C72.4561 17.6817 68.9147 17.6817 68.5797 17.6817C68.1968 17.6817 67.9096 18.018 67.9096 18.3544ZM67.9096 29.9339C67.1918 30.991 65.7561 31.9039 64.0332 31.9039C60.9703 31.9039 58.6253 29.982 58.6253 26.7147C58.6253 23.4474 60.9703 21.5255 64.0332 21.5255C65.7082 21.5255 67.2396 22.4865 67.9096 23.4955V29.9339ZM75.3275 17.6817H79.9219V35.7477H75.3275V17.6817ZM143.955 17.2012C140.796 17.2012 139.313 19.1231 139.313 19.1231V8.98499H134.719V35.7477C134.719 35.7477 138.26 35.7477 138.595 35.7477C138.978 35.7477 139.265 35.4114 139.265 35.0751V34.2583C139.265 34.2583 140.749 36.2282 143.907 36.2282C149.124 36.2282 153.192 32.1922 153.192 26.7147C153.192 21.2372 149.124 17.2012 143.955 17.2012ZM143.189 31.8559C141.419 31.8559 140.031 30.9429 139.313 29.8859V23.4474C140.031 22.4865 141.562 21.4775 143.189 21.4775C146.252 21.4775 148.597 23.3994 148.597 26.6667C148.597 29.9339 146.252 31.8559 143.189 31.8559ZM132.326 25.033V35.7958H127.731V25.5616C127.731 22.5826 126.774 21.3814 124.19 21.3814C122.802 21.3814 121.366 22.1021 120.457 23.1592V35.7477H115.863V17.6817H119.5C119.883 17.6817 120.17 18.018 120.17 18.3544V19.1231C121.51 17.7297 123.281 17.2012 125.051 17.2012C127.061 17.2012 128.736 17.7778 130.076 18.9309C131.704 20.2763 132.326 22.006 132.326 25.033ZM104.712 17.2012C101.553 17.2012 100.07 19.1231 100.07 19.1231V8.98499H95.4755V35.7477C95.4755 35.7477 99.017 35.7477 99.352 35.7477C99.7348 35.7477 100.022 35.4114 100.022 35.0751V34.2583C100.022 34.2583 101.506 36.2282 104.664 36.2282C109.881 36.2282 113.948 32.1922 113.948 26.7147C113.996 21.2372 109.928 17.2012 104.712 17.2012ZM103.946 31.8559C102.176 31.8559 100.788 30.9429 100.07 29.8859V23.4474C100.788 22.4865 102.319 21.4775 103.946 21.4775C107.009 21.4775 109.354 23.3994 109.354 26.6667C109.354 29.9339 107.009 31.8559 103.946 31.8559ZM91.5033 17.2012C92.8912 17.2012 93.6091 17.4414 93.6091 17.4414V21.7177C93.6091 21.7177 89.7805 20.4204 87.3876 23.1592V35.7958H82.7933V17.6817C82.7933 17.6817 86.3347 17.6817 86.6697 17.6817C87.0526 17.6817 87.3398 18.018 87.3398 18.3544V19.1231C88.2012 18.1141 90.0676 17.2012 91.5033 17.2012ZM43.7895 34.1141C43.5502 33.5375 43.311 32.9129 43.0717 32.3844C42.6888 31.5195 42.3059 30.7027 41.9709 29.9339L41.9231 29.8859C38.6209 22.6787 35.0795 15.3754 31.3466 8.16817L31.203 7.87988C30.8202 7.15916 30.4373 6.39039 30.0545 5.62162C29.5759 4.75676 29.0973 3.84384 28.3316 2.97898C26.8002 1.05706 24.5987 0 22.2537 0C19.8608 0 17.7073 1.05706 16.128 2.88288C15.4101 3.74775 14.8837 4.66066 14.4051 5.52553C14.0222 6.29429 13.6394 7.06306 13.2565 7.78378L13.1129 8.07207C9.42793 15.2793 5.83862 22.5826 2.53646 29.7898L2.4886 29.8859C2.1536 30.6547 1.77074 31.4715 1.38789 32.3363C1.1486 32.8649 0.909311 33.4414 0.670024 34.0661C0.0478782 35.8438 -0.143551 37.5255 0.0957356 39.2553C0.622167 42.8589 3.01504 45.8859 6.3172 47.2312C7.56149 47.7598 8.85364 48 10.1936 48C10.5765 48 11.0551 47.952 11.4379 47.9039C13.0172 47.7117 14.6444 47.1832 16.2237 46.2703C18.1858 45.1652 20.0523 43.5796 22.158 41.2733C24.2637 43.5796 26.178 45.1652 28.0923 46.2703C29.6716 47.1832 31.2987 47.7117 32.878 47.9039C33.2609 47.952 33.7395 48 34.1223 48C35.4623 48 36.8023 47.7598 37.9988 47.2312C41.3488 45.8859 43.6938 42.8108 44.2202 39.2553C44.6031 37.5736 44.4117 35.8919 43.7895 34.1141ZM22.2058 36.6126C19.6216 33.3453 17.9465 30.2703 17.3723 27.6757C17.133 26.5706 17.0851 25.6096 17.2287 24.7447C17.3244 23.976 17.6115 23.3033 17.9944 22.7267C18.9037 21.4294 20.4351 20.6126 22.2058 20.6126C23.9766 20.6126 25.5559 21.3814 26.4173 22.7267C26.8002 23.3033 27.0873 23.976 27.183 24.7447C27.3266 25.6096 27.2787 26.6186 27.0394 27.6757C26.4652 30.2222 24.7901 33.2973 22.2058 36.6126ZM41.3009 38.8709C40.9659 41.3694 39.2909 43.5315 36.9459 44.4925C35.7973 44.973 34.5531 45.1171 33.3088 44.973C32.1123 44.8288 30.9159 44.4444 29.6716 43.7237C27.9487 42.7628 26.2259 41.2733 24.2159 39.0631C27.3744 35.1712 29.2887 31.6156 30.0066 28.4444C30.3416 26.955 30.3895 25.6096 30.2459 24.3604C30.0545 23.1592 29.6237 22.0541 28.9537 21.0931C27.4702 18.9309 24.9816 17.6817 22.2058 17.6817C19.4301 17.6817 16.9415 18.979 15.458 21.0931C14.788 22.0541 14.3572 23.1592 14.1658 24.3604C13.9744 25.6096 14.0222 27.003 14.4051 28.4444C15.123 31.6156 17.0851 35.2192 20.1958 39.1111C18.2337 41.3213 16.463 42.8108 14.7401 43.7718C13.4958 44.4925 12.2994 44.8769 11.1029 45.021C9.81079 45.1652 8.56649 44.973 7.46577 44.5405C5.12076 43.5796 3.44575 41.4174 3.11075 38.9189C2.96718 37.7177 3.06289 36.5165 3.54147 35.1712C3.68504 34.6907 3.92433 34.2102 4.16361 33.6336C4.49861 32.8649 4.88147 32.048 5.26433 31.2312L5.31219 31.1351C8.61435 23.976 12.1558 16.6727 15.8408 9.56156L15.9844 9.27327C16.3672 8.55255 16.7501 7.78378 17.133 7.06306C17.5158 6.29429 17.9465 5.57357 18.473 4.94895C19.478 3.7958 20.818 3.17117 22.3016 3.17117C23.7851 3.17117 25.1251 3.7958 26.1302 4.94895C26.6566 5.57357 27.0873 6.29429 27.4702 7.06306C27.853 7.78378 28.2359 8.55255 28.6187 9.27327L28.7623 9.56156C32.3995 16.7207 35.9409 24.024 39.2431 31.1832V31.2312C39.6259 32 39.9609 32.8649 40.3438 33.6336C40.5831 34.2102 40.8224 34.6907 40.9659 35.1712C41.3488 36.4204 41.4924 37.6216 41.3009 38.8709Z" fill="#999999"/>
</g>
<defs>
<clipPath id="clip0_32_890">
<rect width="153.191" height="48" fill="white"/>
</clipPath>
</defs>
</svg>
