<svg width="18" height="18" viewBox="0 0 18 18" fill="none" xmlns="http://www.w3.org/2000/svg">
<path fill-rule="evenodd" clip-rule="evenodd" d="M17.5333 8.9883C17.5333 9.56539 17.4746 10.1417 17.3592 10.7034C17.2467 11.2518 17.08 11.7902 16.8617 12.3049C16.6483 12.8105 16.3837 13.2977 16.0745 13.7521C15.77 14.2036 15.4191 14.6271 15.0337 15.0133C14.6474 15.3977 14.2224 15.7476 13.7711 16.0535C13.3152 16.3605 12.8273 16.6247 12.3215 16.8391C11.806 17.0562 11.2664 17.2227 10.7184 17.335C10.1559 17.4507 9.57755 17.5098 8.99962 17.5098C8.42126 17.5098 7.8429 17.4507 7.28121 17.335C6.73244 17.2227 6.19283 17.0562 5.67779 16.8391C5.17195 16.6247 4.68357 16.3605 4.22772 16.0535C3.77645 15.7476 3.35143 15.3977 2.96599 15.0133C2.58015 14.6271 2.22928 14.2036 1.92427 13.7521C1.61675 13.2977 1.35172 12.8105 1.13755 12.3049C0.919183 11.7902 0.752114 11.2518 0.639188 10.7034C0.525025 10.1417 0.466675 9.56539 0.466675 8.9883C0.466675 8.41077 0.524992 7.83325 0.639221 7.27273C0.752147 6.72432 0.919216 6.18509 1.13759 5.67123C1.35175 5.16528 1.61678 4.67764 1.9243 4.22325C2.22931 3.77139 2.58018 3.34862 2.96602 2.96207C3.35146 2.57759 3.77648 2.22852 4.22775 1.92312C4.6836 1.61478 5.17198 1.35059 5.67783 1.13587C6.19286 0.918218 6.73244 0.751391 7.28124 0.639894C7.84294 0.525063 8.4213 0.466797 8.99966 0.466797C9.57758 0.466797 10.1559 0.525063 10.7185 0.639894C11.2664 0.751424 11.806 0.918251 12.3215 1.13587C12.8273 1.35056 13.3153 1.61478 13.7711 1.92312C14.2224 2.22852 14.6475 2.57759 15.0337 2.96207C15.4191 3.34862 15.77 3.77139 16.0746 4.22325C16.3837 4.67764 16.6483 5.16531 16.8617 5.67123C17.08 6.18509 17.2467 6.72432 17.3592 7.27273C17.4746 7.83325 17.5333 8.41077 17.5333 8.9883ZM5.89026 2.40618C3.85805 3.36445 2.34131 5.23434 1.86836 7.48787C2.06048 7.48954 5.0973 7.52783 8.59622 6.59951C7.33492 4.36178 5.98735 2.53562 5.89026 2.40618ZM9.2 7.72008C5.44774 8.84181 1.84711 8.7611 1.71795 8.75613C1.71585 8.83434 1.71211 8.91005 1.71211 8.98829C1.71211 10.8577 2.41839 12.562 3.57929 13.8507C3.57678 13.8469 5.57108 10.3139 9.50377 9.04406C9.59876 9.01244 9.69546 8.98412 9.79128 8.95667C9.60838 8.54311 9.40875 8.12867 9.2 7.72008ZM13.8124 3.52672C12.5293 2.39701 10.8447 1.71176 8.9996 1.71176C8.40748 1.71176 7.83286 1.78333 7.28242 1.91564C7.39157 2.06212 8.76042 3.87541 10.0067 6.16053C12.7565 5.13115 13.7944 3.55333 13.8124 3.52672ZM10.288 10.1625C10.2718 10.1679 10.2556 10.1725 10.2397 10.1783C5.93997 11.6751 4.53583 14.6915 4.52064 14.7245C5.75781 15.6852 7.30956 16.2648 8.99965 16.2648C10.0088 16.2648 10.9701 16.0596 11.8448 15.6881C11.7368 15.0523 11.3135 12.8238 10.288 10.1625ZM13.0719 15.0232C14.7082 13.9206 15.8703 12.1697 16.1945 10.1416C16.0445 10.0934 14.0057 9.44886 11.6535 9.82544C12.6093 12.4485 12.9977 14.5847 13.0719 15.0232ZM10.5676 7.24487C10.7368 7.5919 10.9006 7.9451 11.0518 8.30007C11.1056 8.42741 11.1581 8.55225 11.2093 8.67705C13.7128 8.36247 16.1792 8.89174 16.2846 8.91335C16.2679 7.18828 15.65 5.60505 14.6275 4.36555C14.6137 4.38506 13.4449 6.07148 10.5676 7.24487Z" fill="white"/>
</svg>
