<svg width="147" height="48" viewBox="0 0 147 48" fill="none" xmlns="http://www.w3.org/2000/svg">
<g clip-path="url(#clip0_32_892)">
<path d="M142.268 29.3349L146.326 32.0403C145.009 33.9803 141.859 37.3087 136.412 37.3087C129.649 37.3087 124.612 32.0759 124.612 25.4192C124.612 18.3353 129.702 13.5297 135.843 13.5297C142.019 13.5297 145.045 18.4421 146.024 21.0941L146.558 22.4468L130.646 29.0323C131.856 31.4173 133.743 32.6276 136.412 32.6276C139.082 32.6276 140.933 31.3105 142.268 29.3349ZM129.791 25.0454L140.417 20.6314C139.83 19.1541 138.086 18.104 136.003 18.104C133.351 18.104 129.667 20.4534 129.791 25.0454Z" fill="#999999"/>
<path d="M116.941 1.40887H122.067V36.2229H116.941V1.40887Z" fill="#999999"/>
<path d="M108.86 14.4553H113.808V35.6C113.808 44.3747 108.629 47.9878 102.506 47.9878C96.7394 47.9878 93.2687 44.1077 91.9694 40.9574L96.508 39.0707C97.3268 41.0108 99.3024 43.3068 102.506 43.3068C106.44 43.3068 108.86 40.8684 108.86 36.3119V34.6033H108.682C107.508 36.0272 105.265 37.3087 102.417 37.3087C96.4724 37.3087 91.026 32.1293 91.026 25.4548C91.026 18.7447 96.4724 13.5119 102.417 13.5119C105.247 13.5119 107.508 14.7756 108.682 16.1639H108.86V14.4553ZM109.216 25.4548C109.216 21.2543 106.422 18.193 102.862 18.193C99.2668 18.193 96.241 21.2543 96.241 25.4548C96.241 29.6019 99.2668 32.6098 102.862 32.6098C106.422 32.6276 109.216 29.6019 109.216 25.4548Z" fill="#999999"/>
<path d="M62.8865 25.3658C62.8865 32.2183 57.5469 37.2553 50.997 37.2553C44.4471 37.2553 39.1075 32.2005 39.1075 25.3658C39.1075 18.4777 44.4471 13.4585 50.997 13.4585C57.5469 13.4585 62.8865 18.4777 62.8865 25.3658ZM57.6893 25.3658C57.6893 21.0941 54.5923 18.1574 50.997 18.1574C47.4017 18.1574 44.3047 21.0941 44.3047 25.3658C44.3047 29.6019 47.4017 32.5742 50.997 32.5742C54.5923 32.5742 57.6893 29.6019 57.6893 25.3658Z" fill="#999999"/>
<path d="M88.8546 25.4192C88.8546 32.2717 83.515 37.3087 76.9651 37.3087C70.4153 37.3087 65.0757 32.2717 65.0757 25.4192C65.0757 18.5311 70.4153 13.5297 76.9651 13.5297C83.515 13.5297 88.8546 18.5133 88.8546 25.4192ZM83.6396 25.4192C83.6396 21.1475 80.5427 18.2108 76.9474 18.2108C73.352 18.2108 70.2551 21.1475 70.2551 25.4192C70.2551 29.6553 73.352 32.6276 76.9474 32.6276C80.5605 32.6276 83.6396 29.6375 83.6396 25.4192Z" fill="#999999"/>
<path d="M19.5647 32.0937C12.1071 32.0937 6.26912 26.0777 6.26912 18.6201C6.26912 11.1625 12.1071 5.14658 19.5647 5.14658C23.5872 5.14658 26.5239 6.73065 28.6954 8.75969L32.2729 5.18217C29.2471 2.281 25.2068 0.0739746 19.5647 0.0739746C9.34828 0.0739746 0.751556 8.40372 0.751556 18.6201C0.751556 28.8365 9.34828 37.1663 19.5647 37.1663C25.0822 37.1663 29.2471 35.3508 32.5043 31.9691C35.8504 28.6229 36.8827 23.9241 36.8827 20.1152C36.8827 18.9227 36.7403 17.6946 36.5801 16.7869H19.5647V21.7349H31.6855C31.3296 24.8318 30.3506 26.9499 28.9089 28.3916C27.1647 30.1536 24.4059 32.0937 19.5647 32.0937Z" fill="#999999"/>
</g>
<defs>
<clipPath id="clip0_32_892">
<rect width="146.286" height="48" fill="white" transform="translate(0.53894)"/>
</clipPath>
</defs>
</svg>
