<svg width="43" height="42" viewBox="0 0 43 42" fill="none" xmlns="http://www.w3.org/2000/svg">
<path d="M5.86523 31.125V21C5.86523 16.972 7.54035 13.109 10.5221 10.2608C13.5038 7.41261 17.5479 5.8125 21.7646 5.8125C25.9814 5.8125 30.0255 7.41261 33.0072 10.2608C35.9889 13.109 37.6641 16.972 37.6641 21V31.125" stroke="black" stroke-width="3" stroke-linecap="round" stroke-linejoin="round"/>
<path d="M37.6641 32.8125C37.6641 33.7076 37.2918 34.566 36.6292 35.199C35.9666 35.8319 35.0679 36.1875 34.1309 36.1875H32.3643C31.4272 36.1875 30.5285 35.8319 29.8659 35.199C29.2033 34.566 28.8311 33.7076 28.8311 32.8125V27.75C28.8311 26.8549 29.2033 25.9965 29.8659 25.3635C30.5285 24.7306 31.4272 24.375 32.3643 24.375H37.6641V32.8125ZM5.86523 32.8125C5.86523 33.7076 6.23748 34.566 6.90009 35.199C7.56269 35.8319 8.46137 36.1875 9.39844 36.1875H11.165C12.1021 36.1875 13.0008 35.8319 13.6634 35.199C14.326 34.566 14.6982 33.7076 14.6982 32.8125V27.75C14.6982 26.8549 14.326 25.9965 13.6634 25.3635C13.0008 24.7306 12.1021 24.375 11.165 24.375H5.86523V32.8125Z" stroke="black" stroke-width="3" stroke-linecap="round" stroke-linejoin="round"/>
</svg>
