<svg width="18" height="18" viewBox="0 0 18 18" fill="none" xmlns="http://www.w3.org/2000/svg">
<path fill-rule="evenodd" clip-rule="evenodd" d="M9.00081 0.466797C6.68327 0.466797 6.39243 0.47693 5.48219 0.518353C4.57374 0.559953 3.95364 0.703777 3.41106 0.914802C2.84981 1.13276 2.37372 1.42432 1.8994 1.89881C1.42473 2.37313 1.13317 2.84922 0.914502 3.41029C0.702944 3.95305 0.558942 4.57333 0.518053 5.48143C0.477342 6.39166 0.466675 6.68268 0.466675 9.00022C0.466675 11.3178 0.476986 11.6077 0.518231 12.5179C0.560009 13.4264 0.703833 14.0465 0.914679 14.5891C1.13282 15.1503 1.42437 15.6264 1.89887 16.1007C2.37301 16.5754 2.8491 16.8677 3.40999 17.0856C3.95293 17.2967 4.57321 17.4405 5.48148 17.4821C6.39171 17.5235 6.68238 17.5336 8.99974 17.5336C11.3175 17.5336 11.6074 17.5235 12.5176 17.4821C13.4261 17.4405 14.0469 17.2967 14.5898 17.0856C15.1509 16.8677 15.6263 16.5754 16.1004 16.1007C16.5751 15.6264 16.8667 15.1503 17.0853 14.5893C17.2951 14.0465 17.4391 13.4262 17.4818 12.5181C17.5227 11.6079 17.5333 11.3178 17.5333 9.00022C17.5333 6.68268 17.5227 6.39184 17.4818 5.4816C17.4391 4.57315 17.2951 3.95306 17.0853 3.41047C16.8667 2.84922 16.5751 2.37313 16.1004 1.89881C15.6258 1.42414 15.1511 1.13258 14.5893 0.914802C14.0453 0.703777 13.4249 0.559953 12.5164 0.518353C11.6062 0.47693 11.3164 0.466797 8.99814 0.466797H9.00081ZM8.23525 2.00457C8.46245 2.00421 8.71597 2.00457 9.00077 2.00457C11.2792 2.00457 11.5492 2.01274 12.449 2.05363C13.281 2.09168 13.7326 2.2307 14.0334 2.3475C14.4316 2.50217 14.7155 2.68706 15.014 2.98573C15.3127 3.2844 15.4976 3.56885 15.6526 3.96708C15.7694 4.26752 15.9086 4.71908 15.9464 5.55109C15.9873 6.45066 15.9962 6.72088 15.9962 8.99824C15.9962 11.2756 15.9873 11.5458 15.9464 12.4454C15.9084 13.2774 15.7694 13.729 15.6526 14.0294C15.4979 14.4276 15.3127 14.7112 15.014 15.0097C14.7153 15.3084 14.4318 15.4932 14.0334 15.6479C13.7329 15.7652 13.281 15.9039 12.449 15.942C11.5494 15.9828 11.2792 15.9917 9.00077 15.9917C6.72217 15.9917 6.45212 15.9828 5.55256 15.942C4.72055 15.9036 4.26899 15.7645 3.96801 15.6477C3.56978 15.4931 3.28533 15.3082 2.98666 15.0095C2.68799 14.7108 2.5031 14.4271 2.34808 14.0287C2.23128 13.7282 2.09208 13.2767 2.05421 12.4447C2.01332 11.5451 2.00514 11.2749 2.00514 8.99611C2.00514 6.71733 2.01332 6.44852 2.05421 5.54896C2.09226 4.71695 2.23128 4.26539 2.34808 3.96459C2.50275 3.56636 2.68799 3.28191 2.98666 2.98324C3.28533 2.68457 3.56978 2.49968 3.96801 2.34466C4.26881 2.22732 4.72055 2.08866 5.55256 2.05043C6.33977 2.01488 6.64484 2.00421 8.23525 2.00243V2.00457ZM13.5558 3.42147C12.9905 3.42147 12.5318 3.87961 12.5318 4.44513C12.5318 5.01047 12.9905 5.46914 13.5558 5.46914C14.1212 5.46914 14.5799 5.01047 14.5799 4.44513C14.5799 3.87979 14.1212 3.42147 13.5558 3.42147ZM9.00082 4.61793C6.58071 4.61793 4.61855 6.58008 4.61855 9.0002C4.61855 11.4203 6.58071 13.3816 9.00082 13.3816C11.4209 13.3816 13.3824 11.4203 13.3824 9.0002C13.3824 6.58008 11.4209 4.61793 9.00082 4.61793ZM9.00079 6.15572C10.5717 6.15572 11.8453 7.42916 11.8453 9.0002C11.8453 10.5711 10.5717 11.8447 9.00079 11.8447C7.42975 11.8447 6.15632 10.5711 6.15632 9.0002C6.15632 7.42916 7.42975 6.15572 9.00079 6.15572Z" fill="white"/>
</svg>
