<svg width="40" height="25" viewBox="0 0 40 25" fill="none" xmlns="http://www.w3.org/2000/svg">
<path d="M2.73725 16.4546L8.02428 21.7416C8.02755 21.7449 8.03107 21.7479 8.03433 21.7512C8.0376 21.7545 8.0415 21.7589 8.04527 21.7626C9.5881 23.3053 11.6221 24.2597 13.7947 24.4604C15.9673 24.661 18.1415 24.0954 19.9409 22.8614C21.7403 24.0954 23.9145 24.661 26.0871 24.4604C28.2597 24.2597 30.2936 23.3053 31.8365 21.7626L37.1236 16.4757C38.7708 14.8281 39.7433 12.6246 39.8503 10.2972C39.9574 7.96983 39.1914 5.6863 37.7024 3.8943C36.2134 2.10243 34.1088 0.931138 31.8012 0.610233C29.4936 0.289327 27.1492 0.841801 25.2278 2.15948C23.672 1.0926 21.8299 0.521399 19.9435 0.520771C18.057 0.520267 16.2147 1.09046 14.6583 2.15646C12.7391 0.830617 10.3935 0.270477 8.08233 0.585855C5.77116 0.901357 3.66152 2.06951 2.16769 3.86113C0.673986 5.65275 -0.095736 7.93817 0.00955706 10.2683C0.114976 12.5986 1.08787 14.8052 2.73725 16.4546ZM28.0987 4.80701C29.2923 4.23695 30.6489 4.10728 31.9288 4.44075C33.2088 4.77409 34.3297 5.54934 35.0934 6.62929C35.857 7.70924 36.2144 9.02427 36.1022 10.3422C35.9901 11.6601 35.4156 12.896 34.4804 13.8313L29.1935 19.1184C28.3729 19.9379 27.3187 20.4833 26.1757 20.6797C25.0327 20.876 23.8569 20.7138 22.8098 20.2151L26.5496 16.4757C27.9838 15.049 28.9122 13.1925 29.1935 11.1892C29.2554 10.7512 29.2867 10.3094 29.287 9.867C29.2907 8.1181 28.8003 6.40375 27.8722 4.92135C27.9471 4.8814 28.0226 4.84345 28.0987 4.80739L28.0987 4.80701ZM15.9757 5.90141C17.0285 4.85551 18.453 4.26974 19.937 4.27213C21.421 4.27464 22.8435 4.86531 23.8929 5.9146C24.9422 6.96402 25.5329 8.38648 25.5354 9.87051C25.5378 11.3545 24.952 12.779 23.9061 13.8318L19.9409 17.797L15.9757 13.8318C14.9259 12.7794 14.3364 11.3535 14.3364 9.86699C14.3364 8.38057 14.9259 6.95472 15.9757 5.90229L15.9757 5.90141ZM5.38077 5.88042C6.20527 5.05805 7.26499 4.51236 8.41329 4.31874C9.56159 4.12512 10.7417 4.29324 11.7902 4.79985C11.8656 4.83616 11.9402 4.87423 12.014 4.91406C11.0831 6.3981 10.591 8.11521 10.5948 9.86699C10.5952 10.3094 10.6263 10.7512 10.6883 11.1892C10.9695 13.1925 11.898 15.049 13.3322 16.4757L17.0491 20.1925L17.0701 20.2135C16.0236 20.7119 14.8484 20.8743 13.7058 20.6784C12.5633 20.4825 11.5095 19.9378 10.6888 19.1192C10.685 19.1155 10.6815 19.1114 10.6778 19.1077C10.6742 19.1039 10.6711 19.1014 10.6678 19.0981L5.40552 13.8358L5.38039 13.8107C4.32884 12.759 3.73804 11.3327 3.73804 9.84551C3.73804 8.35833 4.32884 6.93198 5.38039 5.8803L5.38077 5.88042Z" fill="white"/>
</svg>
