<svg width="40" height="24" viewBox="0 0 40 24" fill="none" xmlns="http://www.w3.org/2000/svg">
<path d="M2.73725 15.9546L8.02428 21.2416C8.02755 21.2449 8.03107 21.2479 8.03433 21.2512C8.0376 21.2545 8.0415 21.2589 8.04527 21.2626C9.5881 22.8053 11.6221 23.7597 13.7947 23.9604C15.9673 24.161 18.1415 23.5954 19.9409 22.3614C21.7403 23.5954 23.9145 24.161 26.0871 23.9604C28.2597 23.7597 30.2936 22.8053 31.8365 21.2626L37.1236 15.9757C38.7708 14.3281 39.7433 12.1246 39.8503 9.79722C39.9574 7.46983 39.1914 5.1863 37.7024 3.3943C36.2134 1.60243 34.1088 0.431138 31.8012 0.110233C29.4936 -0.210673 27.1492 0.341801 25.2278 1.65948C23.672 0.592597 21.8299 0.0213989 19.9435 0.0207712C18.057 0.0202675 16.2147 0.59046 14.6583 1.65646C12.7391 0.330617 10.3935 -0.229523 8.08233 0.0858546C5.77116 0.401357 3.66152 1.56951 2.16769 3.36113C0.673986 5.15275 -0.095736 7.43817 0.00955706 9.76831C0.114976 12.0986 1.08787 14.3052 2.73725 15.9546ZM28.0987 4.30701C29.2923 3.73695 30.6489 3.60728 31.9288 3.94075C33.2088 4.27409 34.3297 5.04934 35.0934 6.12929C35.857 7.20924 36.2144 8.52427 36.1022 9.8422C35.9901 11.1601 35.4156 12.396 34.4804 13.3313L29.1935 18.6184C28.3729 19.4379 27.3187 19.9833 26.1757 20.1797C25.0327 20.376 23.8569 20.2138 22.8098 19.7151L26.5496 15.9757C27.9838 14.549 28.9122 12.6925 29.1935 10.6892C29.2554 10.2512 29.2867 9.8094 29.287 9.367C29.2907 7.6181 28.8003 5.90375 27.8722 4.42135C27.9471 4.3814 28.0226 4.34345 28.0987 4.30739L28.0987 4.30701ZM15.9757 5.40141C17.0285 4.35551 18.453 3.76974 19.937 3.77213C21.421 3.77464 22.8435 4.36531 23.8929 5.4146C24.9422 6.46402 25.5329 7.88648 25.5354 9.37051C25.5378 10.8545 24.952 12.279 23.9061 13.3318L19.9409 17.297L15.9757 13.3318C14.9259 12.2794 14.3364 10.8535 14.3364 9.36699C14.3364 7.88057 14.9259 6.45472 15.9757 5.40229L15.9757 5.40141ZM5.38077 5.38042C6.20527 4.55805 7.26499 4.01236 8.41329 3.81874C9.56159 3.62512 10.7417 3.79324 11.7902 4.29985C11.8656 4.33616 11.9402 4.37423 12.014 4.41406C11.0831 5.8981 10.591 7.61521 10.5948 9.36699C10.5952 9.8094 10.6263 10.2512 10.6883 10.6892C10.9695 12.6925 11.898 14.549 13.3322 15.9757L17.0491 19.6925L17.0701 19.7135C16.0236 20.2119 14.8484 20.3743 13.7058 20.1784C12.5633 19.9825 11.5095 19.4378 10.6888 18.6192C10.685 18.6155 10.6815 18.6114 10.6778 18.6077C10.6742 18.6039 10.6711 18.6014 10.6678 18.5981L5.40552 13.3358L5.38039 13.3107C4.32884 12.259 3.73804 10.8327 3.73804 9.34551C3.73804 7.85833 4.32884 6.43198 5.38039 5.3803L5.38077 5.38042Z" fill="#0077C0"/>
</svg>
