<svg width="179" height="48" viewBox="0 0 179 48" fill="none" xmlns="http://www.w3.org/2000/svg">
<g clip-path="url(#clip0_32_907)">
<path d="M25.1391 44.9061C22.4698 45.3752 19.7536 45.5159 16.9438 45.8905L8.37344 20.7657V46.9689C5.70415 47.25 3.26898 47.625 0.740051 48V0H7.85861L17.5993 27.2348V0H25.1391V44.9061ZM39.8911 17.5781C42.7948 17.5781 47.2437 17.4375 49.913 17.4375V24.9373C46.5879 24.9373 42.7011 24.9373 39.8911 25.078V36.2344C44.2934 35.9533 48.6955 35.5779 53.1443 35.4373V42.6556L32.3979 44.2966V0H53.1443V7.50001H39.8911V17.5781ZM81.0089 7.50018H73.235V42.0001C70.706 42.0001 68.1771 42.0001 65.7423 42.0936V7.50018H57.9684V0H81.0092L81.0089 7.50018ZM93.1849 17.0627H103.441V24.5625H93.1849V41.5783H85.8319V0H106.766V7.50001H93.1849V17.0627ZM118.942 35.0156C123.204 35.1091 127.512 35.4378 131.68 35.6718V43.0781C124.984 42.6559 118.287 42.2346 111.449 42.0936V0H118.942V35.0156ZM138.003 43.5938C140.391 43.7346 142.92 43.8753 145.355 44.1561V0H138.003V43.5938ZM178.184 0L168.677 22.8282L178.184 48C175.374 47.625 172.564 47.1093 169.754 46.6405L164.369 32.7658L158.89 45.5159C156.173 45.0467 153.551 44.9061 150.835 44.5311L160.482 22.5467L151.771 0H159.826L164.743 12.6094L169.989 0H178.184V0Z" fill="#999999"/>
</g>
<defs>
<clipPath id="clip0_32_907">
<rect width="177.444" height="48" fill="white" transform="translate(0.740051)"/>
</clipPath>
</defs>
</svg>
