<svg width="189" height="48" viewBox="0 0 189 48" fill="none" xmlns="http://www.w3.org/2000/svg">
<g clip-path="url(#clip0_32_900)">
<path d="M60.4556 37.6063L62.7989 32.1638C65.3312 34.0535 68.695 35.0362 72.0209 35.0362C74.4776 35.0362 76.0272 34.0913 76.0272 32.6551C75.9894 28.6488 61.3249 31.7858 61.2115 21.7323C61.1737 16.6299 65.7091 12.6992 72.1343 12.6992C75.9516 12.6992 79.769 13.6441 82.4902 15.7984L80.2981 21.3543C77.8036 19.7669 74.7044 18.6331 71.7564 18.6331C69.7532 18.6331 68.4304 19.578 68.4304 20.7874C68.4682 24.7181 83.2461 22.5638 83.3973 32.1638C83.3973 37.3795 78.9753 41.0457 72.6257 41.0457C67.9768 41.0457 63.706 39.9496 60.4556 37.6063ZM150.371 30.1984C149.199 32.2394 147.007 33.6378 144.474 33.6378C140.733 33.6378 137.709 30.6142 137.709 26.8724C137.709 23.1307 140.733 20.1071 144.474 20.1071C147.007 20.1071 149.199 21.5055 150.371 23.5465L156.834 19.9559C154.415 15.6472 149.766 12.6992 144.474 12.6992C136.651 12.6992 130.301 19.0488 130.301 26.8724C130.301 34.6961 136.651 41.0457 144.474 41.0457C149.804 41.0457 154.415 38.1354 156.834 33.789L150.371 30.1984ZM86.6477 0.944885H94.7359V40.5165H86.6477V0.944885ZM160.008 0.944885V40.5165H168.097V28.6488L177.697 40.5165H188.052L175.845 26.4189L187.145 13.2661H177.243L168.097 24.189V0.944885H160.008ZM118.774 30.274C117.602 32.2016 115.183 33.6378 112.462 33.6378C108.72 33.6378 105.697 30.6142 105.697 26.8724C105.697 23.1307 108.72 20.1071 112.462 20.1071C115.183 20.1071 117.602 21.6189 118.774 23.5843V30.274ZM118.774 13.2661V16.4787C117.451 14.2488 114.163 12.6992 110.723 12.6992C103.618 12.6992 98.0241 18.9732 98.0241 26.8346C98.0241 34.6961 103.618 41.0457 110.723 41.0457C114.163 41.0457 117.451 39.4961 118.774 37.2661V40.4787H126.862V13.2661H118.774Z" fill="#999999"/>
<path d="M10.4524 30.2362C10.4524 32.9953 8.22251 35.2252 5.46346 35.2252C2.7044 35.2252 0.47448 32.9953 0.47448 30.2362C0.47448 27.4772 2.7044 25.2473 5.46346 25.2473H10.4524V30.2362ZM12.9469 30.2362C12.9469 27.4772 15.1768 25.2473 17.9359 25.2473C20.695 25.2473 22.9249 27.4772 22.9249 30.2362V42.7087C22.9249 45.4677 20.695 47.6976 17.9359 47.6976C15.1768 47.6976 12.9469 45.4677 12.9469 42.7087V30.2362Z" fill="#999999"/>
<path d="M17.9359 10.2047C15.1768 10.2047 12.9469 7.97481 12.9469 5.21575C12.9469 2.4567 15.1768 0.226776 17.9359 0.226776C20.695 0.226776 22.9249 2.4567 22.9249 5.21575V10.2047H17.9359ZM17.9359 12.737C20.695 12.737 22.9249 14.9669 22.9249 17.726C22.9249 20.485 20.695 22.715 17.9359 22.715H5.42566C2.6666 22.715 0.436684 20.485 0.436684 17.726C0.436684 14.9669 2.6666 12.737 5.42566 12.737H17.9359Z" fill="#999999"/>
<path d="M37.9296 17.726C37.9296 14.9669 40.1595 12.737 42.9186 12.737C45.6776 12.737 47.9076 14.9669 47.9076 17.726C47.9076 20.485 45.6776 22.715 42.9186 22.715H37.9296V17.726ZM35.4351 17.726C35.4351 20.485 33.2052 22.715 30.4461 22.715C27.6871 22.715 25.4572 20.485 25.4572 17.726V5.21575C25.4572 2.4567 27.6871 0.226776 30.4461 0.226776C33.2052 0.226776 35.4351 2.4567 35.4351 5.21575V17.726Z" fill="#999999"/>
<path d="M30.4461 37.7197C33.2052 37.7197 35.4351 39.9496 35.4351 42.7087C35.4351 45.4677 33.2052 47.6976 30.4461 47.6976C27.6871 47.6976 25.4572 45.4677 25.4572 42.7087V37.7197H30.4461ZM30.4461 35.2252C27.6871 35.2252 25.4572 32.9953 25.4572 30.2362C25.4572 27.4772 27.6871 25.2473 30.4461 25.2473H42.9564C45.7154 25.2473 47.9454 27.4772 47.9454 30.2362C47.9454 32.9953 45.7154 35.2252 42.9564 35.2252H30.4461Z" fill="#999999"/>
</g>
<defs>
<clipPath id="clip0_32_900">
<rect width="188.22" height="48" fill="white" transform="translate(0.172119)"/>
</clipPath>
</defs>
</svg>
