<svg width="12" height="12" viewBox="0 0 12 12" fill="none" xmlns="http://www.w3.org/2000/svg">
<path d="M5.04894 1.42705C5.3483 0.505738 6.6517 0.50574 6.95106 1.42705L7.5716 3.33688C7.70547 3.7489 8.08943 4.02786 8.52265 4.02786H10.5308C11.4995 4.02786 11.9023 5.26748 11.1186 5.83688L9.49395 7.01722C9.14347 7.27187 8.99681 7.72323 9.13068 8.13525L9.75122 10.0451C10.0506 10.9664 8.9961 11.7325 8.21238 11.1631L6.58778 9.98278C6.2373 9.72813 5.7627 9.72814 5.41221 9.98278L3.78761 11.1631C3.0039 11.7325 1.94942 10.9664 2.24878 10.0451L2.86932 8.13526C3.00319 7.72323 2.85653 7.27186 2.50604 7.01722L0.881445 5.83688C0.0977311 5.26748 0.500508 4.02786 1.46923 4.02786H3.47735C3.91057 4.02786 4.29453 3.7489 4.4284 3.33688L5.04894 1.42705Z" fill="#FFC806"/>
</svg>
